<?xml version="1.0" encoding="UTF-8" standalone="no"?>
<!-- Created with Inkscape (http://www.inkscape.org/) -->

<svg
   width="20mm"
   height="20mm"
   viewBox="0 0 20 20"
   version="1.1"
   id="svg1"
   inkscape:version="1.4 (86a8ad7, 2024-10-11)"
   sodipodi:docname="logo_matheus.svg"
   xml:space="preserve"
   inkscape:export-filename="logo_matheus.webp"
   inkscape:export-xdpi="115.50235"
   inkscape:export-ydpi="115.50235"
   xmlns:inkscape="http://www.inkscape.org/namespaces/inkscape"
   xmlns:sodipodi="http://sodipodi.sourceforge.net/DTD/sodipodi-0.dtd"
   xmlns="http://www.w3.org/2000/svg"
   xmlns:svg="http://www.w3.org/2000/svg"><sodipodi:namedview
     id="namedview1"
     pagecolor="#ffffff"
     bordercolor="#666666"
     borderopacity="1.0"
     inkscape:showpageshadow="2"
     inkscape:pageopacity="0.0"
     inkscape:pagecheckerboard="true"
     inkscape:deskcolor="#d1d1d1"
     inkscape:document-units="mm"
     inkscape:zoom="2.7545174"
     inkscape:cx="46.2876"
     inkscape:cy="65.52872"
     inkscape:window-width="1920"
     inkscape:window-height="991"
     inkscape:window-x="-9"
     inkscape:window-y="-9"
     inkscape:window-maximized="1"
     inkscape:current-layer="layer1" /><defs
     id="defs1"><clipPath
       clipPathUnits="userSpaceOnUse"
       id="clipPath1"><rect
         style="fill:none;stroke-width:4;stroke-linecap:square;stroke-miterlimit:10;paint-order:stroke fill markers"
         id="rect2"
         width="142.92883"
         height="134.47607"
         x="-3.8421733"
         y="-337.3428"
         ry="54.174644" /></clipPath><clipPath
       clipPathUnits="userSpaceOnUse"
       id="clipPath5"><rect
         style="fill:none;stroke:#000000;stroke-width:4;stroke-linecap:square;stroke-miterlimit:10;stroke-opacity:1;paint-order:stroke fill markers"
         id="rect5"
         width="90.675285"
         height="163.29237"
         x="-427.63388"
         y="-34.963776"
         ry="0"
         rx="0" /></clipPath><clipPath
       clipPathUnits="userSpaceOnUse"
       id="clipPath9"><rect
         style="opacity:1;fill:none;fill-opacity:1;stroke:#000000;stroke-width:1.5;stroke-linecap:square;stroke-miterlimit:10;stroke-dasharray:none;stroke-opacity:1;paint-order:stroke fill markers"
         id="rect10"
         width="81.504807"
         height="127.14749"
         x="-171.1601"
         y="49.446247" /></clipPath><clipPath
       clipPathUnits="userSpaceOnUse"
       id="clipPath15"><rect
         style="opacity:1;fill:#000000;fill-opacity:1;stroke:#000000;stroke-width:0.999998;stroke-linecap:round;stroke-linejoin:round;stroke-miterlimit:10;stroke-dasharray:none;stroke-opacity:1;paint-order:stroke fill markers"
         id="rect16"
         width="15.621755"
         height="21.598772"
         x="90.606178"
         y="92.643791" /></clipPath><clipPath
       clipPathUnits="userSpaceOnUse"
       id="clipPath2"><rect
         style="fill:none;stroke-width:4;stroke-linecap:square;stroke-miterlimit:10;paint-order:stroke fill markers"
         id="rect3"
         width="121.41268"
         height="120.64424"
         x="-105.27555"
         y="163.67659"
         ry="60.322121" /></clipPath></defs><g
     inkscape:label="Camada 1"
     inkscape:groupmode="layer"
     id="layer1"><rect
       style="fill:#080322;fill-opacity:1;stroke-width:0.15;stroke-linecap:round;stroke-linejoin:round;stroke-miterlimit:10;stroke-dasharray:none;paint-order:markers stroke fill"
       id="rect1"
       width="20.715803"
       height="20.715803"
       x="-0.4754447"
       y="-0.40752402"
       sodipodi:insensitive="true" /><path
       id="path8-6-3"
       style="fill:#ffffff;fill-opacity:1;stroke:#ffffff;stroke-width:0.1;stroke-linecap:square;stroke-miterlimit:10;stroke-dasharray:none;stroke-opacity:1;paint-order:stroke fill markers"
       d="m 9.9216935,2.2551571 c -0.556697,0.4642438 -1.352984,0.7124069 -1.672987,1.4158918 -0.114619,0.4887579 0.526444,1.0969458 0.724317,0.3806825 0.384305,-0.555822 0.737487,-1.1468447 0.94867,-1.7965743 z" /><g
       id="g8"
       transform="matrix(0.46250624,0.03661764,-0.03292695,0.40933897,-1.7805745,-1.3580482)"
       style="fill:none;fill-opacity:1;stroke:#ffffff;stroke-width:0.22909791;stroke-dasharray:none;stroke-opacity:1"><path
         style="opacity:1;fill:#ffffff;fill-opacity:1;stroke:#ffffff;stroke-width:0.22909791;stroke-linecap:square;stroke-miterlimit:10;stroke-dasharray:none;stroke-opacity:1;paint-order:stroke fill markers"
         d="m 23.075655,15.340434 c -1.243079,1.192763 -2.958095,2.857622 -2.244795,4.751059 1.185487,1.932865 3.716651,2.225331 5.785428,2.46501 2.38768,0.129738 5.317055,-0.09655 6.864523,-2.168864 1.023708,-1.805972 -0.362028,-3.774672 -1.54675,-5.102444 -1.591135,-3.084903 -2.143702,-6.5613704 -2.400162,-9.9870929 -0.0281,-2.4558393 -3.27556,-1.2372731 -2.673534,0.7997225 -0.111349,3.0084246 -1.720333,5.6684594 -3.111085,8.2479674 -0.209648,0.340477 -0.41061,0.691291 -0.673625,0.994642 z"
         id="path7" /></g><g
       id="g11"
       inkscape:label="olhoE"
       transform="matrix(0.54707336,0.12980865,-0.12787418,0.4423766,-4.8681232,-9.0660725)"
       style="fill:none;fill-opacity:1;stroke:#ffffff;stroke-width:0.294963;stroke-dasharray:none;stroke-opacity:1"><path
         style="opacity:1;fill:#ffffff;fill-opacity:1;stroke:#ffffff;stroke-width:0.294963;stroke-linecap:round;stroke-linejoin:round;stroke-miterlimit:10;stroke-dasharray:none;stroke-opacity:1;paint-order:stroke fill markers"
         d="m 30.909382,35.467076 c 0.303292,0.325318 1.58457,1.504755 0.362527,1.064215 -0.335795,-0.210929 -0.618211,-0.690711 -0.362527,-1.064215 z"
         id="path11" /><path
         style="opacity:1;fill:none;fill-opacity:1;stroke:#ffffff;stroke-width:0.294963;stroke-linecap:round;stroke-linejoin:round;stroke-miterlimit:10;stroke-dasharray:none;stroke-opacity:1;paint-order:stroke fill markers"
         d="m 31.861588,38.324239 c 1.214691,-0.983214 0.467737,-4.766707 -1.226968,-3.766838 -0.615364,1.178974 -0.330775,3.516717 1.226968,3.766838 z"
         id="path10" /></g><g
       id="g14"
       inkscape:label="OlhoD"
       clip-path="url(#clipPath15)"
       transform="matrix(0.15851447,0.01673496,-0.01960574,0.14343469,-2.7780475,-5.2832799)"
       style="display:inline;stroke:#ffffff;stroke-width:0.65845678;stroke-dasharray:none;stroke-opacity:1"><path
         style="opacity:1;fill:#ffffff;fill-opacity:1;stroke:#ffffff;stroke-width:0.65845678;stroke-linecap:round;stroke-linejoin:round;stroke-miterlimit:10;stroke-dasharray:none;stroke-opacity:1;paint-order:stroke fill markers"
         d="m 101.27668,99.713712 c -1.74885,1.154398 -7.82044,5.781908 -2.325245,5.053778 1.465735,-0.62054 7.387965,-5.492849 2.325245,-5.053778 z"
         id="path14" /></g><g
       id="g21"
       inkscape:label="celular"
       style="display:inline;stroke:#ffffff;stroke-width:0.78482806;stroke-dasharray:none;stroke-opacity:1"
       transform="matrix(0.12561447,0,0,0.12924427,2.2837855,0.90541854)"><path
         id="path18"
         style="opacity:1;fill:#ffffff;fill-opacity:1;stroke:#ffffff;stroke-width:0.78482806;stroke-linecap:round;stroke-linejoin:round;stroke-miterlimit:10;stroke-dasharray:none;stroke-opacity:1;paint-order:stroke fill markers"
         d="m 86.929348,63.19366 c -2.296629,0.970204 -0.763421,4.342146 -1.209181,6.383108 0.06359,8.938352 -0.126905,17.901992 0.09475,26.824613 1.687908,1.506436 4.476766,0.395498 6.634032,0.737149 4.593321,-0.06348 9.211861,0.126753 13.789491,-0.09466 1.50756,-1.686852 0.3958,-4.476444 0.7377,-6.633423 -0.0636,-8.82336 0.12692,-17.67201 -0.0948,-26.479638 -1.68791,-1.506442 -4.47677,-0.3955 -6.63403,-0.737152 -4.439343,0 -8.878679,0 -13.318015,0 z m 7.025331,1.918851 c 1.320515,0.357101 5.642885,-0.837127 4.873248,0.834767 -1.092558,-0.384567 -6.002352,0.869157 -4.873248,-0.834767 z m -5.018849,2.204694 c 4.898667,0 9.797333,0 14.696,0 1.8705,1.412639 0.54426,4.603472 0.94289,6.80733 0,5.370122 0,10.740243 0,16.110365 -1.41344,1.869331 -4.603554,0.543767 -6.807469,0.942222 -3.150058,-0.172983 -6.43868,0.353083 -9.498476,-0.275261 -0.629211,-4.485447 -0.101489,-9.200281 -0.275301,-13.77602 0.171181,-3.161963 -0.350553,-6.461261 0.275301,-9.533108 z m 6.234905,25.172148 c 2.818106,-1.317463 5.278785,2.860391 1.295558,2.583171 -1.944913,0.734199 -3.866264,-1.925501 -1.295558,-2.583171 z" /><path
         style="opacity:1;fill:none;fill-opacity:1;stroke:#ffffff;stroke-width:0.78482806;stroke-linecap:round;stroke-linejoin:round;stroke-miterlimit:10;stroke-dasharray:none;stroke-opacity:1;paint-order:stroke fill markers"
         d="m 94.136749,72.542951 c -2.289119,1.573238 -2.557736,1.347789 -0.13477,3.1808"
         id="path19" /><path
         style="fill:none;fill-opacity:1;stroke:#ffffff;stroke-width:0.78482806;stroke-linecap:round;stroke-linejoin:round;stroke-miterlimit:10;stroke-dasharray:none;stroke-opacity:1;paint-order:stroke fill markers"
         d="m 98.742727,72.752521 c 2.289123,1.573234 2.557753,1.34779 0.13477,3.180798"
         id="path19-2" /><path
         style="opacity:1;fill:none;fill-opacity:1;stroke:#ffffff;stroke-width:0.78482806;stroke-linecap:round;stroke-linejoin:round;stroke-miterlimit:10;stroke-dasharray:none;stroke-opacity:1;paint-order:stroke fill markers"
         d="m 97.682387,71.200735 c -0.876001,2.098893 -1.752001,4.197785 -2.628002,6.296678"
         id="path20" /><path
         style="opacity:1;fill:none;fill-opacity:1;stroke:#ffffff;stroke-width:0.78482806;stroke-linecap:round;stroke-linejoin:round;stroke-miterlimit:10;stroke-dasharray:none;stroke-opacity:1;paint-order:stroke fill markers"
         d="m 89.921061,79.914427 c 2.65874,0 5.317481,0 7.976221,0"
         id="path21" /><path
         style="fill:none;fill-opacity:1;stroke:#ffffff;stroke-width:0.78482806;stroke-linecap:round;stroke-linejoin:round;stroke-miterlimit:10;stroke-dasharray:none;stroke-opacity:1;paint-order:stroke fill markers"
         d="m 89.566737,82.565613 c 2.900963,0 5.801927,0 8.70289,0"
         id="path21-4" /><path
         style="fill:none;fill-opacity:1;stroke:#ffffff;stroke-width:0.78482806;stroke-linecap:round;stroke-linejoin:round;stroke-miterlimit:10;stroke-dasharray:none;stroke-opacity:1;paint-order:stroke fill markers"
         d="m 99.739937,82.562643 c 1.079033,0 2.158073,0 3.237103,0"
         id="path21-4-3" /><path
         style="fill:none;fill-opacity:1;stroke:#ffffff;stroke-width:0.78482806;stroke-linecap:round;stroke-linejoin:round;stroke-miterlimit:10;stroke-dasharray:none;stroke-opacity:1;paint-order:stroke fill markers"
         d="m 89.497224,86.000907 c 1.579428,0 3.158857,0 4.738285,0"
         id="path21-4-1" /><path
         style="fill:none;fill-opacity:1;stroke:#ffffff;stroke-width:0.78482806;stroke-linecap:round;stroke-linejoin:round;stroke-miterlimit:10;stroke-dasharray:none;stroke-opacity:1;paint-order:stroke fill markers"
         d="m 95.961031,85.997921 c 2.294853,0 4.589709,0 6.884559,0"
         id="path21-4-3-3" /></g><path
       id="path8-6-3-8"
       style="fill:#ffffff;fill-opacity:1;stroke:#ffffff;stroke-width:0.1;stroke-linecap:square;stroke-miterlimit:10;stroke-dasharray:none;stroke-opacity:1;paint-order:stroke fill markers"
       d="m 12.254378,2.4521204 c 0.371731,0.6168143 1.0428,1.1102987 1.10946,1.8745965 -0.05266,0.4908854 -0.854607,0.8751516 -0.811351,0.1275173 C 12.373834,3.8040546 12.237434,3.1309343 12.254378,2.4521204 Z" /><path
       id="path9"
       style="display:none;opacity:1;fill:#ffffff;fill-opacity:1;stroke:#ffffff;stroke-width:1.5;stroke-linecap:round;stroke-linejoin:round;stroke-miterlimit:10;stroke-dasharray:none;stroke-opacity:1;paint-order:stroke fill markers"
       d="m 57.60163,63.859456 c -2.608793,2.135345 -4.043337,4.911054 -5.041531,8.08156 0.540688,-0.552185 1.0404,-0.787653 1.774052,-0.892133 4.610983,1.398849 4.074088,10.218561 -0.209289,12.026135 -0.363031,-0.09027 -0.261908,0.368334 -0.564307,0.198742 0.421487,0.825081 0.387664,0.697303 0.829407,1.533508 -3.522053,3.23987 -4.255626,7.983166 -8.023283,11.560441 -3.398955,3.227204 -9.657393,3.603454 -13.901477,6.228251 -1.461,0.90356 -3.57982,2.24363 -4.672583,4.05091 -1.042528,1.7242 -1.098313,3.91594 -0.910539,4.85717 1.47282,7.38256 15.3478,9.52908 9.446969,6.91378 -8.060759,-16.42923 19.536783,-6.39005 24.601599,-28.030055 0.622849,-0.51475 -0.287521,7.155408 -2.166276,9.831125 -4.047038,5.76382 -10.865269,10.61407 -12.107788,17.30975 -2.348161,12.65377 23.456165,14.19294 19.833414,-1.28569 -4.853294,5.77248 -13.2316,6.55836 -10.2309,-0.56433 1.269358,-3.01304 3.993898,-4.79301 6.540686,-6.6066 5.857249,-4.17095 7.604678,-13.943244 7.119979,-18.78878 l 0.01189,-0.07606 c 4.76394,-3.04167 -2.667986,22.35338 6.26215,28.80345 9.638612,6.96177 28.602757,4.75131 30.673577,-4.23838 1.91156,-8.29837 0.90241,-17.778512 -20.75997,-16.233097 8.756474,3.264097 12.596441,9.697157 11.234973,13.482107 -1.627825,4.52542 -11.20273,4.87995 -15.740125,-5.9029 l -0.09612,-0.64138 0.01243,-26.727492 C 79.635246,80.660046 71.468642,83.913762 68.96782,83.399722 62.934312,75.378484 74.629813,66.605209 81.580034,72.110804 l 0.01602,-6.77882 C 70.616989,68.025769 63.595812,66.718328 57.60163,63.859456 Z m 23.971096,6.864371 -10e-7,10.093916"
       sodipodi:nodetypes="ccccccssssccsscscccsscsccccccccc" /><path
       id="path9-9"
       style="display:inline;fill:#ffffff;fill-opacity:1;stroke:#ffffff;stroke-width:0.1;stroke-linecap:round;stroke-linejoin:round;stroke-miterlimit:10;stroke-dasharray:none;stroke-opacity:1;paint-order:stroke fill markers"
       d="m 8.1954405,9.0752517 c -0.345751,0.1825848 -0.958234,1.1535553 -0.702354,1.1335153 0.94158,-0.09123 0.888846,1.606981 0.07398,1.802912 0.02396,0.519197 -0.742885,1.312767 -1.126753,1.894361 -0.86257,0.780821 -2.195828,0.629498 -3.034265,1.471668 -0.601057,0.508009 -0.292741,1.466942 0.371808,1.739486 0.196591,0.158262 1.209591,0.513787 1.043307,0.297388 -0.854749,-0.384951 -0.596573,-1.639131 0.365933,-1.669708 1.246315,-0.395167 2.727449,-0.771014 3.35658,-2.079421 0.112447,-0.256463 0.292976,-0.881799 0.218827,-0.232575 -0.04085,0.761899 -0.470521,1.395411 -1.019671,1.876205 -0.623504,0.654902 -1.520163,1.383819 -1.358758,2.409011 0.31833,0.915553 1.447227,1.138868 2.283263,0.981361 0.806878,0.119367 1.4093935,-1.360713 1.004121,-1.502889 -0.269914,0.679731 -1.4536,1.141139 -1.778266,0.278149 -0.09281,-0.843196 0.777484,-1.258306 1.340551,-1.664616 0.757452,-0.660309 1.0664705,-1.743233 1.0104965,-2.735418 0.602145,0.145838 0.155166,1.28802 0.257273,1.840575 -0.0031,0.958126 0.03777,2.213081 1.025498,2.669529 0.688499,0.379749 1.464991,0.234211 2.212917,0.277547 0.688128,0.01021 1.376255,0.02041 2.064383,0.03062 -0.0075,-1.268168 -0.015,-2.536337 -0.0225,-3.804505 -0.993171,0.0069 -1.98634,0.01377 -2.979511,0.02065 -0.0021,0.378058 -0.0041,0.756117 -0.0062,1.134176 0.513688,0.01374 1.027376,0.02748 1.541063,0.04121 0,0.405536 0,0.811072 0,1.216608 -0.603613,0 -1.207227,0 -1.81084,0 -0.301239,-0.530046 -0.402529,-1.12854 -0.358518,-1.731606 5.16e-4,-1.020135 0.0011,-2.040271 0.0016,-3.060405 -0.0019,-0.121635 0.0042,-0.534143 0.0054,-0.767639 0.0018,-0.251687 0.0059,-0.585013 0.0053,-0.705794 8.25e-4,-0.3123306 0.0016,-0.6246617 0.0024,-0.9369929 -1.31216,0.306689 -2.7355885,0.3500863 -3.9870555,-0.2233988 z m 3.1523635,0.9912753 c 0.512315,0.0336 0.917913,0.112247 0.747892,0.658274 -0.04521,0.321143 0.137143,0.791614 -0.323267,0.852666 -0.58604,0.191038 -1.7873135,0.973958 -1.9510075,-0.07136 -0.129504,-0.857578 0.7903835,-1.443719 1.5263825,-1.439584 z" /><path
       id="path9-9-1"
       style="display:inline;fill:#ffffff;fill-opacity:1;stroke:#ffffff;stroke-width:0.1;stroke-linecap:round;stroke-linejoin:round;stroke-miterlimit:10;stroke-dasharray:none;stroke-opacity:1;paint-order:stroke fill markers"
       d="m 8.3230665,12.723861 c -0.287194,0.77586 -1.213828,0.485922 -1.833274,0.54092 -1.060984,0.121715 -1.922344,1.149039 -3.046599,0.913748 -0.918878,-0.320213 -0.804035,-1.637781 -0.333692,-2.305557 0.16642,-0.607466 1.408174,-0.580714 1.359065,-0.273361 -0.839394,-0.04884 -1.360569,1.505576 -0.245671,1.416447 0.751242,-0.106462 1.181814,-0.931943 1.963931,-0.971061 0.45143,-0.140303 1.489925,0.09837 1.578624,0.178544 0.337487,-0.222558 0.661505,0.148764 0.557616,0.50032 z" /></g></svg>
