<svg width="29" height="29" viewBox="0 0 29 29" fill="none" xmlns="http://www.w3.org/2000/svg">
<g clip-path="url(#clip0_536_966)">
<path d="M12.8717 28.9062C12.4405 28.8548 11.9883 28.7884 11.8671 28.7585C11.6887 28.7162 11.5093 28.6784 11.329 28.6452C11.1231 28.6053 10.9188 28.5575 10.7166 28.5018C9.77753 28.2326 9.71024 28.2107 9.00224 27.9211C8.35087 27.6556 7.15077 27.0353 6.74023 26.753C6.62786 26.675 6.52273 26.6123 6.50665 26.6123C6.49079 26.6123 6.22798 26.4274 5.92257 26.2015C3.98093 24.7644 2.52323 23.0199 1.46994 20.8712C1.28869 20.5021 1.14074 20.1747 1.14074 20.1439C1.14074 20.1135 1.10812 20.0295 1.06824 19.9588C0.986 19.8118 0.868867 19.495 0.774391 19.1676C0.73377 19.0285 0.686515 18.8915 0.632789 18.7569C0.588609 18.6527 0.553039 18.5258 0.553039 18.4746C0.553039 18.4232 0.508859 18.256 0.454938 18.1019C0.401016 17.949 0.357516 17.7684 0.357516 17.7009C0.357516 17.6338 0.315148 17.4018 0.262812 17.1852C0.135484 16.6505 0 15.2656 0 14.4894C0 13.7141 0.135484 12.3291 0.262812 11.7946C0.314922 11.5778 0.357516 11.3415 0.357516 11.269C0.357516 11.1963 0.390367 11.0538 0.430016 10.9518C0.470797 10.8503 0.522906 10.6679 0.546922 10.5467C0.571844 10.4255 0.628484 10.2166 0.674477 10.0811L0.808148 9.69009C0.90625 9.39714 0.997328 9.14928 1.04083 9.05277C1.06575 8.99884 1.16295 8.77863 1.25765 8.56339C1.4108 8.21562 1.73909 7.55972 1.93099 7.21648C2.001 7.09073 2.02751 7.04905 2.40632 6.45704C3.00648 5.51726 4.03213 4.34797 4.98687 3.51445C5.32331 3.22059 6.44729 2.36736 6.49781 2.36736C6.51186 2.36736 6.61789 2.3037 6.73412 2.22576C7.0393 2.0214 7.33859 1.84785 7.72873 1.65233C7.86877 1.58307 8.00746 1.51108 8.1447 1.43641C8.20927 1.39926 8.33048 1.34352 8.95284 1.06485C9.08991 1.00368 9.23763 0.947945 9.66334 0.799094C9.75714 0.766469 9.94564 0.697367 10.0802 0.646844C10.2157 0.596547 10.375 0.554859 10.4343 0.554859C10.4928 0.554859 10.6466 0.514078 10.776 0.463781C10.9051 0.413258 11.1396 0.355711 11.298 0.336227C11.4557 0.317648 11.6653 0.273469 11.7636 0.238805C11.861 0.205273 12.1283 0.161773 12.3574 0.142516C12.6559 0.115544 12.9537 0.0804136 13.2503 0.0371641C13.8593 -0.0521016 15.1833 -0.0521016 15.786 0.0371641C16.0706 0.078012 16.3563 0.11163 16.6426 0.137984C16.8585 0.155883 17.1338 0.200969 17.255 0.238125C17.3762 0.274375 17.586 0.319688 17.7206 0.336227C17.8552 0.354125 18.0817 0.409859 18.224 0.461063C18.3667 0.513172 18.5285 0.554859 18.5842 0.554859C18.64 0.554859 18.7551 0.585898 18.8391 0.624867C18.9241 0.66293 19.1038 0.726594 19.2392 0.766469C19.3738 0.80725 19.6047 0.88768 19.7535 0.947039C19.9013 1.00617 20.0995 1.08411 20.1942 1.11945C20.3687 1.18516 21.6578 1.83018 21.8331 1.94006C23.2562 2.82751 23.9882 3.40728 24.9724 4.42409C26.1591 5.6507 26.9469 6.81886 27.7487 8.53847C27.8053 8.65991 27.8919 8.83957 27.9415 8.93677C27.9902 9.03509 28.031 9.15019 28.031 9.19278C28.031 9.23583 28.0718 9.36497 28.1221 9.48029C28.2585 9.79363 28.3751 10.1502 28.4302 10.4228C28.4574 10.5565 28.5079 10.7219 28.5423 10.79C28.577 10.858 28.6176 11.0309 28.6337 11.1725C28.6495 11.3139 28.6964 11.5459 28.7363 11.6866C28.9674 12.4865 29.0822 14.8435 28.9425 15.8859C28.901 16.1956 28.8541 16.5701 28.8382 16.7178C28.8115 16.9709 28.6778 17.625 28.5636 18.0647L28.4458 18.5303C28.2238 19.4268 27.6751 20.704 27.0051 21.8855C26.7396 22.3545 25.8494 23.6228 25.6813 23.7714C25.6661 23.7845 25.5909 23.8734 25.5148 23.9669C25.4387 24.0616 25.1944 24.3263 24.9733 24.5546C23.9989 25.5608 23.2129 26.1829 21.8331 27.0398C21.6696 27.1415 20.2819 27.8194 20.0225 27.9247C19.8879 27.9787 19.6631 28.0697 19.5233 28.1264C19.3845 28.1823 19.2295 28.2292 19.1808 28.2302C19.1321 28.2308 19.0038 28.2743 18.8958 28.3264C18.7879 28.3785 18.6506 28.422 18.5897 28.423C18.5294 28.4239 18.3534 28.4665 18.1984 28.5177C18.0437 28.5698 17.8284 28.6257 17.7204 28.6423C17.6125 28.6593 17.3816 28.7053 17.2063 28.7442C17.0312 28.7832 16.5017 28.8593 16.0311 28.9132C14.9814 29.0357 13.9209 29.0333 12.8717 28.9062ZM13.9372 26.0742C14.0052 26.0212 14.0752 25.9156 14.0938 25.8415C14.1346 25.6777 20.7171 12.4811 20.841 12.3157C20.9455 12.1759 20.9552 11.9521 20.8596 11.8732C20.8093 11.8309 20.179 11.8175 18.4966 11.8202C17.2346 11.8229 16.1736 11.8239 16.139 11.8229C16.0878 11.8211 16.0771 10.9779 16.0823 7.36601C16.0859 4.91528 16.0744 2.88777 16.0567 2.85968C16.039 2.83113 15.9699 2.80825 15.9026 2.80825C15.8079 2.80825 15.7638 2.84903 15.7055 2.99131C15.5957 3.25594 15.2921 3.85678 13.8142 6.7262C13.5072 7.32167 13.201 7.91753 12.8955 8.51377C12.6336 9.02626 12.2203 9.83078 11.9786 10.3014C11.3279 11.5663 10.6786 12.832 10.0306 14.0983C8.91297 16.2815 8.77771 16.5418 8.72968 16.5993C8.63679 16.7117 8.58627 16.9709 8.6386 17.0683C8.68618 17.1576 8.78111 17.1612 11.1405 17.1576C12.4893 17.156 13.6017 17.163 13.6132 17.1734C13.6443 17.2054 13.6327 25.6265 13.6008 25.8272C13.5797 25.9591 13.5938 26.0289 13.654 26.0891C13.7582 26.1936 13.7868 26.1927 13.9372 26.0742Z" fill="white"/>
</g>
<defs>
<clipPath id="clip0_536_966">
<rect width="29" height="29" fill="white"/>
</clipPath>
</defs>
</svg>
